<?xml version="1.0" encoding="UTF-8" standalone="no"?>
<svg
   id="Calque_1"
   viewBox="0 0 253.50089 180.60001"
   version="1.1"
   sodipodi:docname="logo.svg"
   width="253.50089"
   height="180.60001"
   inkscape:version="1.2.2 (b0a8486541, 2022-12-01)"
   xmlns:inkscape="http://www.inkscape.org/namespaces/inkscape"
   xmlns:sodipodi="http://sodipodi.sourceforge.net/DTD/sodipodi-0.dtd"
   xmlns="http://www.w3.org/2000/svg"
   xmlns:svg="http://www.w3.org/2000/svg">
  <sodipodi:namedview
     id="namedview28839"
     pagecolor="#ffffff"
     bordercolor="#000000"
     borderopacity="0.25"
     inkscape:showpageshadow="2"
     inkscape:pageopacity="0.0"
     inkscape:pagecheckerboard="0"
     inkscape:deskcolor="#d1d1d1"
     showgrid="false"
     inkscape:zoom="1.4177083"
     inkscape:cx="174.57752"
     inkscape:cy="-12.696547"
     inkscape:window-width="851"
     inkscape:window-height="1410"
     inkscape:window-x="1707"
     inkscape:window-y="0"
     inkscape:window-maximized="1"
     inkscape:current-layer="Calque_1" />
  <defs
     id="defs27294">
    <style
       id="style27292">.cls-1{fill:#f55d1d;}.cls-2{fill:#fb8810;}.cls-3{fill:#f9ebd1;}.cls-4{fill:#697281;}.cls-5{fill:#698cb0;}.cls-6{fill:#ed97a4;}.cls-7{fill:#f41039;}.cls-8{fill:#f2b329;}.cls-9{fill:#edadba;}.cls-10{fill:#fcbc57;}.cls-11{fill:#f0cf8b;}.cls-12{fill:#f0b6c0;}.cls-13{fill:#f0ac0e;}.cls-14{fill:#f0ab0d;}.cls-15{fill:#7c8491;}.cls-16{fill:#656156;}.cls-17{fill:#c9ccd1;}.cls-18{fill:#c48f20;}.cls-19{fill:#acc4d6;}.cls-20{fill:#e37d91;}.cls-21{fill:#1f3d73;}.cls-22{fill:#091830;}.cls-23{fill:#136bac;}.cls-24{fill:#147cc4;}.cls-25{fill:#31d693;}.cls-26{fill:#258f63;}.cls-27{fill:#79b4de;}.cls-28{fill:#779dbc;}</style>
  </defs>
  <path
     class="cls-21"
     d="m 64.120881,154.2 h -5.78 l 0.99,-4.06 h 12.26 l -5.88,7.66 c 4.84,0.69 7.02,4 7.02,8.46 0,4.75 -3.46,9.74 -11.52,14.34 l -2.13,-3.46 c 6.77,-3.86 9.64,-7.17 9.64,-10.88 0,-3.36 -2.03,-5.19 -6.28,-5.19 -0.74,0 -1.48,0.05 -2.23,0.2 l -0.74,-1.14 z"
     id="path27298" />
  <path
     class="cls-21"
     d="m 91.020881,175.36 -0.99,4.2 h -13.25 v -29.42 h 11.62 l 0.99,4.06 h -8.51 v 4.5 c 0.55,-0.45 1.29,-0.69 2.13,-0.69 2.08,0 2.77,0.84 4.15,0.84 0.54,0 0.94,-0.1 1.24,-0.3 l 1.83,3.22 c -0.64,0.59 -1.58,0.99 -2.82,0.99 -2.27,0 -3.07,-0.94 -4.45,-0.94 -1.88,0 -2.08,1.19 -2.08,2.72 v 10.83 h 10.14 z m -9.89,-27 -2.72,-3.61 h 4.1 l 1.93,3.61 z"
     id="path27300" />
  <path
     class="cls-21"
     d="m 117.51088,149.65 v 29.91 h -4 v -23.73 c -5.44,2.92 -5.44,7.86 -5.44,16.66 v 7.07 h -4.05 v -7.07 c 0,-8.8 0,-13.75 -5.439999,-16.66 v 23.73 h -4 v -29.91 c 5.929999,1.88 9.489999,4.75 11.469999,9.34 1.98,-4.6 5.54,-7.47 11.47,-9.34 z"
     id="path27302" />
  <path
     class="cls-21"
     d="m 136.89088,175.36 -0.99,4.2 h -13.25 v -29.42 h 11.62 l 0.99,4.06 h -8.51 v 4.5 c 0.55,-0.45 1.29,-0.69 2.13,-0.69 2.08,0 2.77,0.84 4.15,0.84 0.54,0 0.94,-0.1 1.24,-0.3 l 1.83,3.22 c -0.64,0.59 -1.58,0.99 -2.82,0.99 -2.27,0 -3.07,-0.94 -4.45,-0.94 -1.88,0 -2.08,1.19 -2.08,2.72 v 10.83 h 10.14 z"
     id="path27304" />
  <path
     class="cls-21"
     d="m 164.18088,175.36 -0.99,4.2 h -13.25 v -29.42 h 11.62 l 0.99,4.06 h -8.51 v 4.5 c 0.55,-0.45 1.29,-0.69 2.13,-0.69 2.08,0 2.77,0.84 4.15,0.84 0.54,0 0.94,-0.1 1.24,-0.3 l 1.83,3.22 c -0.64,0.59 -1.58,0.99 -2.82,0.99 -2.27,0 -3.07,-0.94 -4.45,-0.94 -1.88,0 -2.08,1.19 -2.08,2.72 v 10.83 h 10.14 z m -6.68,-27 h -3.31 l 1.93,-3.61 h 4.1 z"
     id="path27306" />
  <path
     class="cls-21"
     d="m 167.78088,150.14 h 4.35 c 8.01,0 11.37,4.75 11.37,10.53 0,7.32 -5.34,15.62 -15.72,19.58 z m 4,3.96 v 19.68 c 5.09,-3.31 7.66,-8.65 7.66,-12.96 0,-3.76 -1.83,-6.72 -7.17,-6.72 z"
     id="path27308" />
  <path
     class="cls-21"
     d="m 201.20088,154.2 v 25.36 h -4.1 V 154.2 h -9.3 l 0.99,-4.06 h 20.72 l 0.99,4.06 z m -13.4,3.81 h 4.1 v 21.56 h -4.1 z m 18.59,0 h 4.11 v 21.56 h -4.11 z"
     id="path27310" />
  <path
     class="cls-21"
     d="m 214.84088,161.56 c 0.1,-9.2 4.1,-11.57 8.9,-11.57 5.04,0 9.05,2.38 8.95,11.67 -0.1,9.49 -2.97,18.14 -8.95,18.14 -5.98,0 -9,-8.55 -8.9,-18.24 z m 13.85,0.1 c 0,-6.33 -1.58,-7.71 -4.95,-7.71 -2.87,0 -4.9,1.43 -4.9,7.71 0,5.44 1.48,14.19 4.9,14.19 3.42,0 4.95,-8.95 4.95,-14.19 z"
     id="path27312" />
  <path
     class="cls-21"
     d="m 253.50088,150.14 v 29.42 h -4.1 v -6.53 c 0,-9.39 -2.77,-14.19 -8.41,-17.36 v 23.88 h -4 v -29.91 c 5.64,1.78 9.79,4.7 12.41,9.05 v -8.55 z"
     id="path27314" />
  <path
     class="cls-1"
     d="m 116.48088,53.92 -1.49,6.36 H 94.950881 V 33.81 c -0.75,0.37 -1.64,0.6 -2.77,0.6 -3.44,0 -4.64,-1.27 -6.73,-1.27 -2.84,0 -3.14,1.79 -3.14,4.11 v 23.03 h -6.21 v -44.5 h 6.21 V 28.2 c 0.75,-0.37 1.64,-0.6 2.77,-0.6 3.44,0 4.64,1.27 6.73,1.27 2.84,0 3.14,-2.09 3.14,-4.11 v -8.98 h 17.569999 l 1.49,6.13 h -12.86 v 7.03 c 0.75,-0.75 1.79,-1.27 3.22,-1.27 3.14,0 4.19,1.27 6.28,1.27 0.82,0 1.42,-0.15 1.87,-0.45 l 2.77,4.86 c -0.97,0.9 -2.39,1.5 -4.26,1.5 -3.44,0 -4.64,-1.42 -6.73,-1.42 -2.84,0 -3.14,1.8 -3.14,4.11 v 16.38 h 15.33 z"
     id="path27316" />
  <path
     class="cls-1"
     d="m 145.74088,58.7 v 1.57 h -6.21 V 58.7 c 0,-4.71 -0.52,-8.6 -4.11,-12.79 -2.17,1.72 -4.64,3.29 -7.33,4.64 v 9.72 h -6.21 v -44.5 h 6.58 c 11.51,0 16.75,5.54 16.75,12.42 0,4.26 -1.95,9.12 -5.54,13.46 4.79,5.38 6.06,11.22 6.06,17.05 z m -17.65,-14.73 c 6.8,-3.74 10.99,-9.79 10.99,-14.73 0,-4.19 -2.99,-7.48 -9.87,-7.48 h -1.12 z"
     id="path27318" />
  <path
     class="cls-1"
     d="m 151.96088,15.78 h 7.48 c 10.17,0 14.51,5.61 11.22,13.69 3.74,1.8 5.68,5.01 5.68,9.12 0,10.32 -10.02,18.47 -24.38,22.44 z m 9.27,11.89 c 1.35,0 2.54,0.07 3.66,0.22 2.02,-3.89 -0.45,-5.98 -5.08,-5.98 h -1.8 v 5.76 z m -3.22,5.91 v 18.55 c 6.66,-3.22 12.12,-7.4 12.12,-12.57 0,-4.26 -2.69,-5.98 -9.12,-5.98 h -2.99 z"
     id="path27320" />
  <path
     class="cls-1"
     d="m 204.03088,53.92 -1.49,6.36 h -20.04 v -44.5 h 17.57 l 1.5,6.13 h -12.86 v 6.81 c 0.82,-0.67 1.95,-1.05 3.22,-1.05 3.14,0 4.19,1.27 6.28,1.27 0.83,0 1.42,-0.15 1.87,-0.45 l 2.77,4.86 c -0.97,0.9 -2.39,1.5 -4.26,1.5 -3.44,0 -4.64,-1.42 -6.73,-1.42 -2.84,0 -3.14,1.8 -3.14,4.11 v 16.38 h 15.33 z"
     id="path27322" />
  <path
     class="cls-1"
     d="m 215.71088,54.37 c 4.11,0 7.33,-3.22 7.33,-7.48 0,-9.27 -14.66,-13.09 -14.66,-22.73 0,-4.94 3.74,-8.67 8.75,-8.67 3.44,0 5.76,0.9 8.15,3.22 l -3.51,4.56 c -1.12,-1.12 -2.54,-1.72 -3.96,-1.72 -1.72,0 -2.92,1.05 -2.92,2.69 0,5.08 14.51,10.69 14.51,22.44 0,8.22 -5.68,14.06 -13.76,14.06 -3.74,0 -6.73,-0.97 -10.1,-2.92 l 1.87,-6.2 c 3.29,2.09 5.31,2.77 8.3,2.77 z"
     id="path27324" />
  <path
     class="cls-1"
     d="m 119.97088,111.29 c -0.23,12 -6.8,28.42 -20.499999,28.42 -13.7,0 -20.27,-16.2 -20.27,-28.65 0,-4.53 0.68,-8.16 1.81,-11.1 -3.4,-0.56 -5.32,-1.59 -8.16,-1.59 -5.32,0 -5.89,2.72 -5.89,6.23 v 34.54 h -9.4 V 71.76 h 36.58 l 2.26,9.29 h -29.44 v 10.31 c 1.36,-0.91 2.95,-1.59 5.21,-1.59 6.45,0 8.72,1.92 12.57,1.92 1.59,0 2.95,-0.45 4.31,-0.79 3.06,-1.47 6.68,-2.04 10.41,-2.04 11.549999,0 20.839999,4.98 20.499999,22.42 z m -9.17,0.9 c 0,-11.1 -3.62,-14.27 -11.329999,-14.27 -6.57,0 -11.21,3.29 -11.21,14.27 0,6.8 3.4,18.46 11.21,18.46 7.809999,0 11.329999,-12.12 11.329999,-18.46 z"
     id="path27326" />
  <path
     class="cls-1"
     d="m 139.26088,129.52 h 31.7 l -2.26,9.63 h -38.84 V 71.77 h 9.4 z m 36.12,-18 -2.26,9.63 h -21.85 V 71.77 h 9.4 v 39.75 h 14.72 z"
     id="path27328" />
  <path
     class="cls-1"
     d="m 215.04088,129.52 -2.26,9.63 h -30.35 V 71.77 h 26.61 l 2.27,9.29 h -19.48 v 10.31 c 1.24,-1.02 2.95,-1.59 4.87,-1.59 4.76,0 6.34,1.92 9.51,1.92 1.25,0 2.15,-0.23 2.83,-0.68 l 4.19,7.36 c -1.47,1.36 -3.62,2.27 -6.45,2.27 -5.21,0 -7.02,-2.15 -10.19,-2.15 -4.31,0 -4.76,2.72 -4.76,6.23 v 24.8 h 23.21 z"
     id="path27330" />
  <path
     class="cls-1"
     d="m 232.73088,130.21 c 6.23,0 11.1,-4.87 11.1,-11.33 0,-14.04 -22.19,-19.81 -22.19,-34.42 0,-7.47 5.66,-13.13 13.25,-13.13 5.21,0 8.72,1.36 12.34,4.87 l -5.32,6.91 c -1.7,-1.7 -3.85,-2.6 -6,-2.6 -2.6,0 -4.42,1.59 -4.42,4.08 0,7.7 21.97,16.19 21.97,33.97 0,12.45 -8.61,21.29 -20.83,21.29 -5.67,0 -10.19,-1.47 -15.29,-4.42 l 2.83,-9.4 c 4.98,3.17 8.04,4.19 12.57,4.19 z"
     id="path27332" />
  <path
     class="cls-1"
     d="m 18.440881,67.93 c 0.7,-0.21 1.4,-0.13 1.86,0.33 0.63,0.64 0.31,1.8 -0.27,2.45 -3.15,3.56 -7.11,6.15 -11.1099997,8.6 -1.38,0.85 -2.71,-1.01 -3.56,-1.89 -2.29,-2.38 -4.40999996,-4.98 -4.88999996,-8.51 -1.04,-7.63 2.75999996,-13.35 8.04999996,-17.79 4.7199997,-3.95 11.0299997,-4.86 17.0099997,-6.05 0.83,-0.17 1.66,-0.38 2.48,-0.6 0.09,-0.02 0.14,-0.2 0.22,-0.31 -0.16,-0.1 -0.31,-0.27 -0.49,-0.3 -2.13,-0.46 -2.76,-2.33 -1.4,-4.03 4.44,-5.53 6.34,-12.17 8.07,-18.86 0.46,-1.77 1.63,-1.91 3.03,-1.75 1.23,0.14 0.99,1.18 0.97,1.97 -0.02,1.25 -0.14,2.5 -0.18,3.75 0,0.16 0.14,0.43 0.27,0.47 1.59,0.53 1.22,1.63 0.53,2.47 -4.01,4.9 -5.72,11.07 -9.11,16.31 -0.05,0.08 -0.04,0.21 -0.05,0.32 0.22,0.02 0.44,0.08 0.66,0.06 3.64,-0.22 7.26,-0.47 9.94,2.81 0.54,0.67 0.91,1.28 0.88,2.1 -0.14,3.32 -0.2,6.65 -0.48,9.96 -0.34,3.88 -4.64,7.96 -8.42,8.02 -0.93,0.02 -1.44,-0.98 -1.79,-1.78 -0.3,-0.66 0.31,-1.01 0.75,-1.33 0.7,-0.49 1.43,-0.93 2.15,-1.39 -1.18,0.01 -2.35,0.02 -3.53,0.04 -0.04,0 -0.08,0.05 -0.13,0.05 -5.38,0.09 -1.94,3.01 -1.25,4.52 2.02,4.42 4.65,8.58 6.46,13.07 0.93,2.31 0.92,5.11 0.87,7.68 -0.1,4.72 -0.69,9.43 -0.82,14.15 -0.14,4.91 -2.32,9.38 -2.69,14.23 -0.32,4.18 -0.43,8.39 0.21,12.5 0.35,2.26 0.16,4.93 2.38,6.75 0.62,0.5 -0.66,0.5 -1.02,0.78 -1.47,1.15 -3.83,1.75 -4.95,1.31 -2.91,-1.14 -5.66,0.11 -8.45,-0.29 -1.31,-0.19 -2.76,0.67 -4.15,1.03 -1.42,0.36 -2.52,0.06 -2.59,-1.63 -0.11,-2.93 -0.71,-5.53 -2.6,-8.01 -1.18,-1.55 -1.8899997,-3.95 -1.7799997,-5.91 0.5899997,-10.16 -1.05,-20.24 -0.76,-30.4 0.15,-5.3 1.2399997,-9.93 4.7999997,-13.89 0.5,-0.56 0.37,-2.07 1.61,-1.46 0.82,0.4 0.25,1.57 0.32,2.39 0.4,4.51 -3,7.92 -3.55,12.19 -0.78,6.11 0.13,11.9 2.08,17.74 1.64,4.9 3.81,9.54 5.71,14.31 0.7,1.75 1.72,3.14 3.84,2.57 2.03,-0.55 1.99,-2.54 2,-4.06 0.03,-4.85 1.5,-9.44 2.27,-14.15 0.55,-3.41 1.18,-6.8 1.8,-10.19 0.58,-3.22 1.3,-6.42 1.77,-9.65 0.71,-4.9 -1.78,-8.73 -4.5,-12.42 -2.46,-3.34 -3.8,-7.18 -5.21,-11.01 -0.09,-0.24 -0.15,-0.93 -0.46,-1 -0.16,-0.03 -0.5,0.18 -0.65,0.23 -0.36,0.13 -0.73,0.26 -1.09,0.39 -0.3,0.11 -0.61,0.22 -0.9,0.35 -1.94,0.91 -4.56,0.36 -5.77,2.51 -0.57,1.01 -0.15,1.9 0.11,2.82 0.03,0.1 0.55,0.2 0.73,0.11 1.36,-0.75 2.71,-1.52 4.03,-2.33 0.24,-0.15 0.49,-0.26 0.74,-0.33 z"
     id="path27334" />
  <path
     class="cls-1"
     d="m 36.580881,0.01 c 11.73,-0.18 19.93,5.88 26.37,14.97 1.8,2.54 1.67,5.35 0.65,8.23 -0.45,1.27 -0.37,2.71 -0.74,4.01 -0.52,1.85 -1.2,3.29 -3.82,2.9 -4.6,-0.68 -9.3,-0.7 -13.84,-1.87 -2.03,-0.53 -3.27,-2.4 -3.06,-3.91 0.19,-1.34 2.47,-2.18 4.06,-2.23 3.13,-0.1 5.17,-2.53 7.96,-3.33 0.7,-0.2 0.2,-1.24 -0.44,-1.4 -4.21,-1.04 -8.41,-2.21 -12.69,-2.92 -2.48,-0.41 -4.82,1 -7.18,1.77 -4.95,1.62 -9.93,3.16 -14.89,4.76 -3.07,0.99 -6.01,2.28 -8.47,4.42 -0.28,0.24 -0.4999997,0.95 -0.35,1.21 0.43,0.74 0.93,1.75 1.92,1.61 2.67,-0.38 5.31,-0.96 7.97,-1.44 0.79,-0.14 1.59,-0.24 2.39,-0.34 0.1,-0.01 0.2,0.07 0.31,0.11 -0.11,0.17 -0.18,0.36 -0.32,0.49 -1.35,1.24 -3.15,1.32 -4.79,1.77 -4.31,1.19 -8.6599997,1.95 -13.1099997,0.67 -0.12,-0.03 -0.38,0 -0.39,0.06 -0.46,1.8 -1.4,1.24 -2.42,0.52 C 0.35088134,29.13 -0.46911866,27.61 0.29088134,26.33 3.3308813,21.24 3.8808813,14.86 8.2208813,10.51 11.590881,7.12 15.810881,4.96 20.280881,3.27 c 5.26,-1.99 10.68,-3.13 16.3,-3.27 z"
     id="path27336" />
</svg>
