<?xml version="1.0" encoding="UTF-8" standalone="no"?>
<svg
   id="Calque_4"
   viewBox="0 0 1280 720"
   version="1.1"
   sodipodi:docname="logo.svg"
   inkscape:export-filename="Vignette.png"
   inkscape:export-xdpi="96"
   inkscape:export-ydpi="96"
   inkscape:version="1.2.2 (b0a8486541, 2022-12-01)"
   xmlns:inkscape="http://www.inkscape.org/namespaces/inkscape"
   xmlns:sodipodi="http://sodipodi.sourceforge.net/DTD/sodipodi-0.dtd"
   xmlns="http://www.w3.org/2000/svg"
   xmlns:svg="http://www.w3.org/2000/svg">
  <sodipodi:namedview
     id="namedview6634"
     pagecolor="#ffffff"
     bordercolor="#000000"
     borderopacity="0.25"
     inkscape:showpageshadow="2"
     inkscape:pageopacity="0.0"
     inkscape:pagecheckerboard="0"
     inkscape:deskcolor="#d1d1d1"
     showgrid="false"
     inkscape:zoom="0.76021575"
     inkscape:cx="586.01785"
     inkscape:cy="484.07311"
     inkscape:window-width="1790"
     inkscape:window-height="1410"
     inkscape:window-x="768"
     inkscape:window-y="0"
     inkscape:window-maximized="1"
     inkscape:current-layer="Calque_4" />
  <defs
     id="defs6605">
    <style
       id="style6603">.cls-1{fill:none;}.cls-2{fill:#f55d1d;}</style>
  </defs>
  <path
     class="cls-2"
     d="m 588.32234,279.30346 -7.53278,32.05214 H 479.71196 V 177.83738 c -3.77719,1.89939 -8.28823,3.00015 -13.96481,3.00015 -17.35349,0 -23.397,-6.41042 -33.92994,-6.41042 -14.33173,0 -15.84261,9.04366 -15.84261,20.74216 V 311.33403 H 384.6563 V 86.925833 h 31.3183 v 62.614997 c 3.77719,-1.89939 8.28823,-3.02175 13.96481,-3.02175 17.35349,0 23.397,6.41043 33.92994,6.41043 14.33173,0 15.84261,-10.55454 15.84261,-20.74216 V 86.925833 h 88.62366 l 7.53279,30.929777 h -64.85975 v 35.46242 c 3.75563,-3.7556 9.04369,-6.41043 16.20956,-6.41043 15.84261,0 21.10908,6.41043 31.68522,6.41043 4.14411,0 7.16587,-0.75544 9.43218,-2.26632 l 13.96481,24.49775 c -4.89955,4.53263 -12.06544,7.55439 -21.49759,7.55439 -17.35349,0 -23.397,-7.16587 -33.95154,-7.16587 -14.33176,0 -15.82104,9.06526 -15.82104,20.74216 v 82.60176 h 77.31365 z"
     id="path6609"
     style="stroke-width:2.15839;fill:#ec8f37;fill-opacity:1" />
  <path
     class="cls-2"
     d="m 735.91331,303.4559 v 7.9213 h -31.3183 v -7.9213 c 0,-23.76392 -2.63324,-43.38372 -20.74216,-64.4928 -10.94306,8.67674 -23.39699,16.59805 -36.95169,23.39699 v 49.03871 h -31.3183 V 86.990565 h 33.1961 c 58.08237,0 84.47952,27.908055 84.47952,62.615035 0,21.4976 -9.82067,45.99535 -27.90803,67.88147 24.13083,27.15259 30.56286,56.57149 30.56286,85.99042 z m -89.01215,-74.3135 c 34.31845,-18.86436 55.44913,-49.40563 55.44913,-74.29193 0,-21.13065 -15.08717,-37.7287 -49.79414,-37.7287 h -5.65499 z"
     id="path6611"
     style="stroke-width:2.15839;fill:#ec8f37;fill-opacity:1" />
  <path
     class="cls-2"
     d="m 767.29637,86.9474 h 37.70713 c 51.30502,0 73.16954,28.27498 56.57149,69.02546 18.86437,9.06523 28.66347,25.27479 28.66347,46.01695 0,52.06046 -50.52799,93.15626 -122.94209,113.14298 z m 46.77239,59.98176 c 6.77735,0 12.82086,0.36696 18.47585,1.12239 10.18762,-19.59823 -2.26632,-30.17437 -25.64171,-30.17437 h -9.06527 v 29.05198 z m -16.23113,29.78586 v 93.54478 c 33.56302,-16.20953 61.10413,-37.34021 61.10413,-63.37044 0,-21.4976 -13.5979,-30.17434 -46.01696,-30.17434 z"
     id="path6613"
     style="stroke-width:2.15839;fill:#ec8f37;fill-opacity:1" />
  <path
     class="cls-2"
     d="m 1029.865,279.30346 -7.5328,32.05214 H 921.2546 V 86.9474 h 88.6236 l 7.5544,30.92978 h -64.8813 v 34.34005 c 4.14411,-3.38867 9.8207,-5.28807 16.20953,-5.28807 15.84261,0 21.13068,6.41043 31.68517,6.41043 4.1658,0 7.1659,-0.75544 9.4322,-2.26628 l 13.9648,24.49775 c -4.8995,4.53263 -12.0654,7.55439 -21.4976,7.55439 -17.35344,0 -23.39695,-7.16587 -33.92992,-7.16587 -14.33174,0 -15.84261,9.06526 -15.84261,20.74216 v 82.60172 h 77.31373 z"
     id="path6615"
     style="stroke-width:2.15839;fill:#ec8f37;fill-opacity:1" />
  <path
     class="cls-2"
     d="m 1088.7675,281.59138 c 20.7422,0 36.9517,-16.23113 36.9517,-37.72873 0,-46.75082 -73.925,-66.00371 -73.925,-114.65389 0,-24.88628 18.8644,-43.750639 44.1392,-43.750639 17.3535,0 29.0304,4.532631 41.0958,16.209529 l -17.7204,23.00848 c -5.6766,-5.67656 -12.8209,-8.67675 -19.9867,-8.67675 -8.6768,0 -14.7203,5.28807 -14.7203,13.5763 0,25.64174 73.1696,53.93829 73.1696,113.14301 0,41.48432 -28.6635,70.90323 -69.3924,70.90323 -18.8644,0 -33.9515,-4.89955 -50.9165,-14.72022 l 9.4322,-31.29673 c 16.5765,10.55454 26.7857,13.96481 41.8513,13.96481 z"
     id="path6617"
     style="stroke-width:2.15839;fill:#ec8f37;fill-opacity:1" />
  <path
     class="cls-2"
     d="m 605.93482,568.70091 c -1.14392,60.52137 -34.27529,143.33892 -103.38705,143.33892 -69.11175,0 -102.22152,-81.67362 -102.22152,-144.48288 0,-22.85738 3.41024,-41.13897 9.13,-55.98871 -17.13767,-2.8275 -26.85044,-8.00767 -41.139,-8.00767 -26.82884,0 -29.6995,13.72739 -29.6995,31.40463 v 174.20397 h -47.4199 v -339.8175 h 184.47793 l 11.4179,46.83712 H 338.61775 v 51.99573 c 6.86371,-4.5758 14.84975,-8.00767 26.26766,-8.00767 32.54858,0 43.96649,9.69121 63.39203,9.69121 8.00764,0 14.84975,-2.28791 21.71343,-3.99302 15.41096,-7.42489 33.69254,-10.27395 52.53531,-10.27395 58.27666,0 105.09221,25.14526 103.38707,113.09982 z m -46.25437,4.5542 c 0,-55.96715 -18.28159,-71.96082 -57.13268,-71.96082 -33.10976,0 -56.52832,16.57645 -56.52832,71.96082 0,34.27532 17.13763,93.09153 56.52832,93.09153 39.3907,0 57.13268,-61.10413 57.13268,-93.09153 z"
     id="path6619"
     style="stroke-width:2.15839;fill:#ec8f37;fill-opacity:1" />
  <path
     class="cls-2"
     d="m 703.21363,660.64848 h 159.89384 l -11.41791,48.54229 H 655.79373 V 369.37324 h 47.4199 z m 182.16844,-90.80362 -11.41791,48.54226 H 763.7566 V 369.35167 h 47.37674 v 200.4716 h 74.24873 z"
     id="path6621"
     style="stroke-width:2.15839;fill:#ec8f37;fill-opacity:1" />
  <path
     class="cls-2"
     d="m 1085.422,660.64848 -11.4179,48.54229 H 920.93081 V 369.37324 h 134.20889 l 11.4395,46.83715 h -98.22846 v 51.9957 c 6.28094,-5.13698 14.84975,-8.00764 24.56252,-8.00764 24.00134,0 31.98744,9.69121 47.95954,9.69121 6.3025,0 10.8567,-1.14396 14.2669,-3.41028 l 21.1307,37.10279 c -7.4248,6.86368 -18.2816,11.43947 -32.5486,11.43947 -26.2676,0 -35.4192,-10.85669 -51.39132,-10.85669 -21.71342,0 -24.00133,13.72738 -24.00133,31.40463 v 125.0789 h 117.07125 z"
     id="path6623"
     style="stroke-width:2.15839;fill:#ec8f37;fill-opacity:1" />
  <path
     class="cls-2"
     d="m 1174.65,664.08032 c 31.4047,0 55.9672,-24.58409 55.9672,-57.13267 0,-70.79533 -111.9343,-99.93364 -111.9343,-173.6212 0,-37.68556 28.5555,-66.24109 66.8238,-66.24109 26.2677,0 43.9665,6.86367 62.2481,24.56251 l -26.8288,34.85807 c -8.5904,-8.59041 -19.4255,-13.14464 -30.2823,-13.14464 -13.1446,0 -22.2746,8.00763 -22.2746,20.54793 0,38.82949 110.7904,81.65203 110.7904,171.33328 0,62.80926 -43.4054,107.3585 -105.0707,107.3585 -28.5771,0 -51.4129,-7.42486 -77.0978,-22.2746 l 14.267,-47.37674 c 25.1021,15.99367 40.5562,21.13065 63.392,21.13065 z"
     id="path6625"
     style="stroke-width:2.15839;fill:#ec8f37;fill-opacity:1" />
  <path
     class="cls-2"
     d="m 93.877476,349.96929 c 3.496603,-1.03602 7.057964,-0.6691 9.389014,1.68354 3.17285,3.21601 1.53248,9.10843 -1.35978,12.36761 -15.907373,17.93623 -35.872497,31.01611 -56.010313,43.36211 -6.971607,4.27361 -13.662625,-5.09381 -17.936264,-9.54011 C 16.391163,385.86336 5.7286939,372.71875 3.2896865,354.95518 -1.9767846,316.47101 17.189767,287.65645 43.889073,265.25232 c 23.785513,-19.94356 55.643393,-24.49775 85.774597,-30.5197 4.20885,-0.84176 8.37456,-1.92096 12.51867,-3.02175 0.47485,-0.1294 0.73384,-1.01443 1.07919,-1.55404 -0.82017,-0.51802 -1.5972,-1.33819 -2.48214,-1.53245 -10.72723,-2.30948 -13.92164,-11.76326 -7.05797,-20.33207 22.38257,-27.90803 31.96584,-61.38471 40.70732,-95.12042 2.30948,-8.93574 8.24506,-9.64801 15.30303,-8.82784 6.23773,0.71228 4.96428,5.93561 4.92112,9.9502 -0.0863,6.30253 -0.69068,12.60503 -0.90651,18.92912 -0.0217,0.79861 0.69068,2.13682 1.33819,2.37425 8.02923,2.6764 6.12984,8.22346 2.65483,12.4755 -20.22414,24.71361 -28.83615,55.83765 -45.95222,82.2564 -0.28052,0.41009 -0.17253,1.07919 -0.25911,1.61878 1.10076,0.10799 2.22315,0.38851 3.30234,0.32378 18.34635,-1.10079 36.58477,-2.37424 50.1395,14.20221 2.74113,3.3671 4.59736,6.47519 4.44627,10.59773 -0.69068,16.74911 -0.99286,33.54142 -2.43898,50.22583 -1.70513,19.5982 -23.41856,40.1677 -42.47718,40.46986 -4.70529,0.0863 -7.23063,-4.92112 -9.04367,-8.9789 -1.48931,-3.34551 1.53245,-5.11541 3.79876,-6.69102 3.53977,-2.46057 7.23063,-4.68372 10.85673,-7.0148 -5.93558,0.0649 -11.87119,0.10799 -17.80677,0.19426 -0.21567,0 -0.43165,0.25911 -0.64751,0.25911 -27.15258,0.43169 -9.77753,15.15191 -6.28093,22.79262 10.18762,22.29624 23.44016,43.27582 32.61335,65.93894 4.70529,11.63374 4.64053,25.77124 4.35994,38.74316 -0.51801,23.80711 -3.475,47.57103 -4.14411,71.37811 -0.69068,24.75677 -11.6985,47.2904 -13.5547,71.76659 -1.59724,21.10908 -2.17998,42.32609 1.0576,63.02508 1.79146,11.39634 0.7986,24.86471 12.02225,34.05947 3.10808,2.5469 -3.34551,2.50374 -5.15854,3.90668 -7.42489,5.78449 -19.31765,8.80624 -24.9942,6.58312 -14.67709,-5.71975 -28.53397,0.53958 -42.62828,-1.46771 -6.60469,-0.9497 -13.92165,3.38868 -20.936422,5.18014 -7.165866,1.81304 -12.712958,0.30225 -13.036713,-8.24506 -0.561179,-14.76341 -3.604531,-27.88646 -13.123044,-40.38356 -5.957146,-7.81337 -9.540079,-19.94355 -8.9789,-29.80742 3.000156,-51.24026 -5.309667,-102.09203 -3.863522,-153.31072 0.755438,-26.74247 6.259334,-50.07473 24.195597,-70.08302 2.546906,-2.8275 1.877798,-10.44664 8.093966,-7.38172 4.144113,2.02889 1.251855,7.9213 1.640373,12.04385 2.028891,22.77105 -15.151935,39.95184 -17.914666,61.47104 -3.949853,30.80028 0.669108,60.00336 10.511375,89.46543 8.24506,24.71361 19.209717,48.11061 28.792996,72.17668 3.51817,8.84943 8.69831,15.8642 19.33918,12.97195 10.25238,-2.78433 10.01496,-12.79926 10.07972,-20.48314 0.17254,-24.45462 7.59755,-47.59259 11.43947,-71.37811 2.78433,-17.18079 5.95718,-34.29685 9.06527,-51.41291 2.93542,-16.23113 6.56152,-32.37593 8.91416,-48.67179 3.58294,-24.71361 -9.00049,-44.03126 -22.70632,-62.6366 -12.38917,-16.81387 -19.18811,-36.21785 -26.26765,-55.53546 -0.45325,-1.20872 -0.73384,-4.70529 -2.30948,-5.05065 -0.77701,-0.17284 -2.52531,0.90654 -3.25918,1.16553 -1.83463,0.64751 -3.66926,1.31662 -5.503894,1.96413 -1.532444,0.53961 -3.064919,1.10079 -4.511033,1.79146 -9.755936,4.5974 -22.986908,1.81307 -29.073581,12.6482 -2.849062,5.09381 -0.777006,9.56167 0.561179,14.20223 0.151125,0.51802 2.762762,1.03603 3.669295,0.53962 6.863678,-3.7772 13.662624,-7.68388 20.353642,-11.76326 1.208689,-0.73384 2.482142,-1.29502 3.755594,-1.68354 z"
     id="path6627"
     style="stroke-width:2.15839;fill:#ec8f37;fill-opacity:1" />
  <path
     class="cls-2"
     d="m 185.3718,7.4321958 c 59.18316,-0.9065323 100.51642,29.6778952 132.97864,75.4790202 9.08683,12.820856 8.41775,26.979924 3.25918,41.505924 -2.26632,6.38883 -1.85623,13.66262 -3.73403,20.24571 -2.65483,9.32428 -6.04351,16.57648 -19.27445,14.63392 -23.22433,-3.41027 -46.90188,-3.51817 -69.80246,-9.45375 -10.25235,-2.65483 -16.49012,-12.10861 -15.43252,-19.70613 0.92813,-6.75578 12.45393,-10.96466 20.4616,-11.24525 15.79941,-0.51801 26.09496,-12.77769 40.1461,-16.79231 3.5182,-1.01443 1.03603,-6.237762 -2.24471,-7.057933 -21.23861,-5.266502 -42.43402,-11.158916 -63.97482,-14.698684 -12.4971,-2.050458 -24.30349,5.029078 -36.21782,8.914168 -24.97263,8.137162 -50.07476,15.928969 -75.090531,24.022939 -15.497256,5.00748 -30.28227,11.52583 -42.736206,22.2962 -1.402948,1.20872 -2.50374,4.79165 -1.748301,6.10827 2.136819,3.734 4.662126,8.82781 9.691204,8.09397 13.468365,-1.94256 26.807235,-4.81322 40.210864,-7.2522 3.99302,-0.73387 8.0508,-1.20872 12.06542,-1.72673 0.47485,-0.0649 1.03603,0.34535 1.53248,0.53961 -0.53962,0.84177 -0.90654,1.83463 -1.61881,2.48214 -6.82051,6.25936 -15.885774,6.62629 -24.173999,8.91417 -21.756621,6.00034 -43.685904,9.8207 -66.111602,3.38867 -0.604375,-0.17254 -1.899395,0.0217 -1.964158,0.28053 -2.331048,9.08686 -7.03634,6.23777 -12.1949135,2.63327 C 2.5774443,154.28923 -1.5666992,146.64851 2.2968546,140.19492 17.643017,114.53161 20.405748,82.371542 42.270299,60.420693 59.30003,43.347796 80.560205,32.404737 103.09383,23.879088 129.62048,13.820963 156.94576,8.0796436 185.32863,7.3889685 Z"
     id="path6629"
     style="stroke-width:2.15839;fill:#ec8f37;fill-opacity:1" />
  <rect
     class="cls-1"
     x="0"
     y="0"
     width="1280"
     height="720"
     id="rect6631" />
</svg>
